HIERARCHY
ROOT Hips
{
	OFFSET 0.000000 88.474243 0.000000
	CHANNELS 6 Xposition Yposition Zposition Zrotation Yrotation Xrotation 
	JOINT Hips_Spine
	{
		OFFSET 0.000000 0.000000 0.000000
		CHANNELS 3 Zrotation Yrotation Xrotation
		JOINT Spine
		{
			OFFSET 0.005100 8.711998 -0.691000
			CHANNELS 3 Zrotation Yrotation Xrotation
			JOINT Spine1
			{
				OFFSET -0.009200 8.660301 -1.275000
				CHANNELS 3 Zrotation Yrotation Xrotation
				JOINT Spine2
				{
					OFFSET 0.006300 9.852501 -1.857000
					CHANNELS 3 Zrotation Yrotation Xrotation
					JOINT Spine2_Neck
					{
						OFFSET 0.000000 0.000000 0.000000
						CHANNELS 3 Zrotation Yrotation Xrotation
						JOINT Neck
						{
							OFFSET 0.016300 11.420799 -0.263300
							CHANNELS 3 Zrotation Yrotation Xrotation
							End Site #name: Head
							{
								OFFSET -0.019200 9.262405 2.362500
							}
						}
					}
					JOINT Spine2_LeftShoulder
					{
						OFFSET 0.000000 0.000000 0.000000
						CHANNELS 3 Zrotation Yrotation Xrotation
						JOINT LeftShoulder
						{
							OFFSET 5.616900 6.732201 -0.345700
							CHANNELS 3 Zrotation Yrotation Xrotation
							JOINT LeftArm
							{
								OFFSET 10.664888 -0.183372 -2.440700
								CHANNELS 3 Zrotation Yrotation Xrotation
								JOINT LeftForeArm
								{
									OFFSET 27.459126 0.000000 0.000000
									CHANNELS 3 Zrotation Yrotation Xrotation
									End Site #name: LeftHand
									{
										OFFSET 21.306858 0.000000 0.000000
									}
								}
							}
						}
					}
					JOINT Spine2_RightShoulder
					{
						OFFSET 0.000000 0.000000 0.000000
						CHANNELS 3 Zrotation Yrotation Xrotation
						JOINT RightShoulder
						{
							OFFSET -5.580300 6.737503 -0.344400
							CHANNELS 3 Zrotation Yrotation Xrotation
							JOINT RightArm
							{
								OFFSET -10.679335 -0.188484 -2.383900
								CHANNELS 3 Zrotation Yrotation Xrotation
								JOINT RightForeArm
								{
									OFFSET -27.503529 0.000000 0.000000
									CHANNELS 3 Zrotation Yrotation Xrotation
									End Site #name: RightHand
									{
										OFFSET -21.306808 0.000000 0.000000
									}
								}
							}
						}
					}
				}
			}
		}
	}
	JOINT Hips_LeftUpLeg
	{
		OFFSET 0.000000 0.000000 0.000000
		CHANNELS 3 Zrotation Yrotation Xrotation
		JOINT LeftUpLeg
		{
			OFFSET 6.857700 -6.739601 0.312100
			CHANNELS 3 Zrotation Yrotation Xrotation
			JOINT LeftLeg
			{
				OFFSET -0.367590 -34.731552 -4.572400
				CHANNELS 3 Zrotation Yrotation Xrotation
				End Site #name: LeftFoot
				{
					OFFSET 0.367590 -34.656704 -6.067400
				}
			}
		}
	}
	JOINT Hips_RightUpLeg
	{
		OFFSET 0.000000 0.000000 0.000000
		CHANNELS 3 Zrotation Yrotation Xrotation
		JOINT RightUpLeg
		{
			OFFSET -6.876100 -6.733299 0.301000
			CHANNELS 3 Zrotation Yrotation Xrotation
			JOINT RightLeg
			{
				OFFSET 0.347353 -34.795158 -4.515900
				CHANNELS 3 Zrotation Yrotation Xrotation
				End Site #name: RightFoot
				{
					OFFSET -0.347353 -34.589367 -6.070300
				}
			}
		}
	}
}
MOTION
Frames: 10
Frame Time: 0.041667
0.057120 0.006730 0.011706 -1.008186 -3.461595 -1.916914 0.000000 0.000000 0.000000 0.854293 1.355712 8.282560 -0.811145 0.895042 0.363285 0.000000 0.000000 0.000000 -0.390545 0.020337 -1.895192 1.181530 -1.786970 4.760125 -1.648718 -0.147665 0.091629 -4.827297 -5.644369 1.448450 -64.745662 3.150550 42.945116 0.186719 -22.951089 -0.322083 -0.538756 0.619960 0.446115 10.693854 -2.693929 1.842870 61.346111 24.308727 18.822976 178.858054 66.410095 179.698424 0.000000 0.000000 0.000000 -0.344513 8.149417 -16.855457 3.945977 5.295241 19.670859 0.000000 0.000000 0.000000 -1.954410 -10.072019 -11.357737 -1.729352 -3.206510 17.560732 
0.082740 0.052498 -0.045563 -1.113103 -3.210131 -1.676818 0.000000 0.000000 0.000000 -0.389794 0.483023 4.182713 -0.857871 0.544955 1.121039 0.000000 0.000000 0.000000 -0.642370 -0.210692 0.168212 3.103865 -1.488208 5.704908 -0.565912 -0.216242 1.038987 -3.669457 2.300924 0.215976 -62.268545 5.258564 47.616665 0.155385 -18.927829 0.275568 -1.196065 -0.064663 0.926587 9.712847 -1.781243 0.700740 58.738972 32.118023 4.248495 179.232833 52.738775 179.809026 0.000000 0.000000 -0.000000 0.324266 9.933307 -16.087772 3.170621 5.423176 18.086556 0.000000 0.000000 0.000000 -2.053880 -10.325368 -11.798226 -1.811323 -3.162681 17.327114 
0.189575 0.048489 -0.107280 -1.389354 -3.134265 -1.483935 0.000000 0.000000 0.000000 -0.468626 0.343693 3.618191 -0.697245 0.280709 1.717871 0.000000 0.000000 0.000000 -0.805965 -0.276760 0.545583 3.037159 -1.331270 5.133515 -0.832664 0.060785 2.154676 -5.876554 4.427734 -0.159228 -62.937410 2.265483 42.171274 0.070451 -13.396395 0.081415 -1.123743 -0.019898 1.469587 9.856800 -2.319930 0.300469 53.889910 26.913755 1.222044 179.459317 54.429768 -179.949195 0.000000 0.000000 -0.000000 0.779548 11.079570 -16.450132 3.287614 5.563907 18.214959 -0.000000 0.000000 0.000000 -1.891378 -10.182158 -11.946781 -1.446578 -3.021295 17.049161 
0.321561 0.037276 -0.174141 -1.651183 -3.086485 -1.301317 0.000000 0.000000 0.000000 -0.693055 0.624407 3.999730 -0.775030 0.158553 2.385028 0.000000 0.000000 0.000000 -0.896496 -0.255287 1.167728 2.138327 -1.745696 6.324987 -1.010658 -0.057933 2.382730 -5.402403 5.541005 -0.485892 -65.733576 -0.634807 39.364679 0.064412 -10.034233 0.127509 -1.122601 -0.049556 1.942359 8.997926 -2.746328 0.280948 50.415813 30.240878 -2.691723 179.384134 49.702558 -179.864119 -0.000000 0.000000 -0.000000 1.005510 11.630504 -16.785387 3.529272 5.682449 18.392283 -0.000000 0.000000 0.000000 -1.757639 -10.079298 -12.088993 -0.986351 -2.518046 17.073689 
0.477760 0.029991 -0.238172 -1.860666 -3.116434 -1.183879 0.000000 0.000000 0.000000 -0.866573 0.849845 4.412028 -0.996009 0.114398 2.528727 0.000000 0.000000 0.000000 -1.149157 -0.276795 1.293861 1.909177 -2.174067 7.644348 -1.182571 -0.237474 2.409745 -4.835667 5.873673 -0.527698 -67.510559 -2.525622 38.027344 0.067389 -8.399068 0.122671 -1.347276 -0.091531 2.172216 8.834983 -3.458149 0.232825 49.169809 34.048523 -4.634170 179.454408 45.801443 -179.768134 -0.000000 0.000000 -0.000000 1.130062 11.892766 -17.043267 3.621692 5.588003 18.698837 -0.000000 0.000000 0.000000 -1.702819 -9.882764 -12.166066 -0.602886 -2.248886 17.102617 
0.640269 0.025339 -0.298613 -2.004783 -3.192430 -1.110194 0.000000 -0.000000 0.000000 -1.030539 0.904481 4.609913 -1.201881 0.116273 2.567095 0.000000 0.000000 0.000000 -1.346898 -0.298895 1.340213 2.154025 -2.475888 8.472370 -1.306659 -0.353437 2.488543 -4.420172 5.715965 -0.483416 -68.825250 -3.570427 37.264016 0.095100 -7.551841 0.108021 -1.541760 -0.140901 2.219253 8.526644 -3.475142 0.252945 48.528430 36.023888 -5.691737 179.440390 44.205553 -179.710490 -0.000000 0.000000 -0.000000 1.201404 12.019366 -17.216021 3.618540 5.405108 18.995916 -0.000000 0.000000 0.000000 -1.657822 -9.708940 -12.161319 -0.375711 -2.095990 16.982838 
0.794804 0.021658 -0.356743 -2.105362 -3.266654 -1.043122 0.000000 -0.000000 0.000000 -1.030973 0.881510 4.760159 -1.293846 0.123380 2.572455 0.000000 0.000000 0.000000 -1.459493 -0.298856 1.354308 2.521125 -2.809498 8.729839 -1.397942 -0.345864 2.514430 -4.049591 5.831585 -0.491487 -69.510963 -4.014033 36.291127 0.111434 -7.635170 0.132009 -1.649364 -0.126568 2.180577 8.119753 -3.320099 0.273856 48.397912 36.592408 -5.960354 179.423311 43.440383 -179.717557 -0.000000 0.000000 -0.000000 1.229817 12.088258 -17.349221 3.573644 5.182049 19.185416 -0.000000 0.000000 0.000000 -1.614734 -9.661505 -12.192361 -0.250903 -1.913384 16.904463 
0.927266 0.017567 -0.411225 -2.192804 -3.316977 -0.970072 0.000000 -0.000000 0.000000 -1.007639 0.911452 4.838138 -1.339499 0.165506 2.561182 0.000000 0.000000 0.000000 -1.530318 -0.247845 1.350586 2.871885 -3.059034 9.043414 -1.447451 -0.269081 2.511799 -3.828812 6.031003 -0.523209 -69.695824 -4.067087 35.572508 0.116495 -8.235158 0.146206 -1.718492 -0.061890 2.139179 7.614915 -3.205722 0.290097 48.269948 36.289643 -6.050536 179.416367 43.635534 -179.731105 -0.000000 0.000000 -0.000000 1.238665 12.126389 -17.463358 3.531666 4.952208 19.262438 -0.000000 0.000000 0.000000 -1.551072 -9.678644 -12.286584 -0.200689 -1.769237 16.922164 
1.023611 0.012604 -0.459894 -2.285278 -3.348135 -0.895720 0.000000 -0.000000 0.000000 -1.007640 0.937205 4.874398 -1.363651 0.209246 2.552506 0.000000 0.000000 0.000000 -1.584835 -0.196619 1.349255 3.163516 -3.210837 9.236285 -1.489125 -0.189745 2.506725 -3.694440 6.305898 -0.563872 -69.670304 -3.788299 35.117302 0.114724 -8.783999 0.151493 -1.768652 -0.002511 2.101492 7.072771 -3.162754 0.298265 47.687959 35.696773 -6.356167 179.408288 44.058711 -179.741545 -0.000000 0.000000 -0.000000 1.262032 12.138655 -17.574649 3.495761 4.736829 19.300356 -0.000000 0.000000 0.000000 -1.469222 -9.705329 -12.401017 -0.167444 -1.677040 16.993247 
1.087633 0.007063 -0.502848 -2.368984 -3.372290 -0.836022 0.000000 -0.000000 0.000000 -1.036296 0.959957 4.926497 -1.389222 0.236445 2.540083 0.000000 0.000000 0.000000 -1.635536 -0.163018 1.327150 3.328425 -3.271360 9.324131 -1.528825 -0.136838 2.481020 -3.615581 6.552108 -0.608589 -69.541907 -3.406604 34.997198 0.111779 -9.204399 0.157528 -1.821926 0.042508 2.065717 6.553689 -3.187189 0.294488 46.748667 35.409234 -7.016128 179.397999 44.292211 -179.750988 -0.000000 0.000000 -0.000000 1.301332 12.140863 -17.656754 3.465972 4.549832 19.307591 -0.000000 0.000000 0.000000 -1.387157 -9.715424 -12.511829 -0.149230 -1.639300 17.099933 
